<svg xmlns="http://www.w3.org/2000/svg" width="320" height="111" viewBox="0 0 320 111" fill="none"><g clip-path="url(#clip0_41_329)"><path d="M149.055 76.2094C147.934 86.7781 132.162 83.6521 126.033 79.4845C123.491 77.4001 121.324 78.0702 119.381 80.005C118.035 82.0149 117.96 85.2893 120.427 87.2992C130.742 95.7835 158.249 95.3369 158.772 76.4324C159.295 56.6353 126.78 63.6314 128.798 51.4255C130.368 43.6853 142.926 45.3225 148.457 48.8206C152.942 52.095 158.324 45.62 153.24 41.527C142.926 33.6377 121.025 36.2426 119.306 50.6814C116.988 71.8182 148.083 65.1941 149.055 76.2094ZM220.438 64.9712C220.438 47.3318 206.759 38.3264 193.679 37.6562C179.85 37.6562 165.499 46.6623 165.499 64.9712C165.499 83.2055 179.85 92.36 193.679 91.7643C206.759 91.7643 220.438 82.6099 220.438 64.9712ZM210.646 64.9712C210.646 76.656 201.452 82.6099 192.857 82.6099C184.485 82.6099 175.366 76.656 175.366 64.9712C175.366 53.2118 184.485 47.3318 192.857 47.3318C201.452 47.3318 210.646 53.2118 210.646 64.9712ZM264.762 71.3716C264.762 86.9265 239.273 86.034 239.273 71.3716V44.4294C239.273 37.4333 229.481 37.7308 229.481 44.4294V71.3716C229.481 99.207 274.553 99.207 274.553 71.3716V44.4294C274.553 37.2842 264.762 37.8053 264.762 44.4294V71.3716ZM284.943 86.48C284.943 89.1594 287.036 91.0202 289.653 91.0202H314.393C321.868 91.0202 321.719 81.2701 314.393 81.2701H294.063V43.9828C294.063 41.527 292.044 39.4425 289.653 39.4425C287.036 39.4425 284.943 41.527 284.943 43.9828V86.48Z" fill="white"></path><path d="M41.0688 47.2838C43.9409 47.2838 46.2697 44.9656 46.2697 42.1052C46.2697 39.2455 43.9409 36.9272 41.0688 36.9272C38.1968 36.9272 35.8679 39.2455 35.8679 42.1052C35.8679 44.9656 38.1968 47.2838 41.0688 47.2838Z" fill="white"></path><path d="M41.5404 59.1848C39.5526 59.1848 37.9409 57.5692 37.9409 55.5759C37.9409 53.5825 39.5526 51.9663 41.5404 51.9663C43.5283 51.9663 45.1399 53.5825 45.1399 55.5759C45.1399 57.5692 43.5283 59.1848 41.5404 59.1848Z" fill="white"></path><path d="M52.725 33.6249C56.9144 33.6249 60.3098 30.2453 60.3098 26.0764C60.3098 21.9075 56.9144 18.5273 52.725 18.5273C48.5357 18.5273 45.1403 21.9075 45.1403 26.0764C45.1403 30.2453 48.5357 33.6249 52.725 33.6249Z" fill="white"></path><path d="M74.4937 24.5677C79.8398 24.5677 84.1738 20.2504 84.1738 14.9247C84.1738 9.59953 79.8398 5.28223 74.4937 5.28223C69.1476 5.28223 64.8136 9.59953 64.8136 14.9247C64.8136 20.2504 69.1476 24.5677 74.4937 24.5677Z" fill="white"></path><path d="M103.196 24.3752C109.976 24.3752 115.472 18.945 115.472 12.2464C115.472 5.5484 109.976 0.118164 103.196 0.118164C96.4164 0.118164 90.9205 5.5484 90.9205 12.2464C90.9205 18.945 96.4164 24.3752 103.196 24.3752Z" fill="white"></path><path d="M74.508 63.8301C71.6359 63.8301 69.3071 66.1483 69.3071 69.0087C69.3071 71.8684 71.6359 74.1866 74.508 74.1866C77.38 74.1866 79.7089 71.8684 79.7089 69.0087C79.7089 66.1483 77.38 63.8301 74.508 63.8301Z" fill="white"></path><path d="M74.0365 51.9287C76.0243 51.9287 77.636 53.5443 77.636 55.5376C77.636 57.531 76.0243 59.1472 74.0365 59.1472C72.0486 59.1472 70.437 57.531 70.437 55.5376C70.437 53.5443 72.0486 51.9287 74.0365 51.9287Z" fill="white"></path><path d="M62.8519 77.4888C58.6625 77.4888 55.2671 80.8683 55.2671 85.0372C55.2671 89.2061 58.6625 92.5863 62.8519 92.5863C67.0412 92.5863 70.4366 89.2061 70.4366 85.0372C70.4366 80.8683 67.0412 77.4888 62.8519 77.4888Z" fill="white"></path><path d="M41.0833 86.5459C35.7372 86.5459 31.4032 90.8632 31.4032 96.1883C31.4032 101.514 35.7372 105.831 41.0833 105.831C46.4295 105.831 50.7634 101.514 50.7634 96.1883C50.7634 90.8632 46.4295 86.5459 41.0833 86.5459Z" fill="white"></path><path d="M12.3805 86.7383C5.60057 86.7383 0.104727 92.1685 0.104727 98.8671C0.104727 105.565 5.60057 110.995 12.3805 110.995C19.1604 110.995 24.6562 105.565 24.6562 98.8671C24.6562 92.1685 19.1604 86.7383 12.3805 86.7383Z" fill="white"></path></g><defs><clipPath id="clip0_41_329"><rect width="320" height="111" fill="white"></rect></clipPath></defs></svg>